<svg width="1200" height="800" viewBox="0 0 1200 800" fill="none" xmlns="http://www.w3.org/2000/svg">
  <defs>
    <linearGradient id="bg" x1="0" y1="0" x2="1" y2="1">
      <stop offset="0%" stop-color="#0F172A"/>
      <stop offset="55%" stop-color="#1E293B"/>
      <stop offset="100%" stop-color="#0B1220"/>
    </linearGradient>
    <linearGradient id="card" x1="0" y1="0" x2="1" y2="1">
      <stop offset="0%" stop-color="#E2E8F0"/>
      <stop offset="100%" stop-color="#CBD5F5"/>
    </linearGradient>
    <linearGradient id="accent" x1="0" y1="0" x2="1" y2="0">
      <stop offset="0%" stop-color="#38BDF8"/>
      <stop offset="100%" stop-color="#22D3EE"/>
    </linearGradient>
    <filter id="blur" x="-20%" y="-20%" width="140%" height="140%">
      <feGaussianBlur stdDeviation="30"/>
    </filter>
  </defs>

  <rect width="1200" height="800" fill="url(#bg)"/>

  <circle cx="210" cy="170" r="150" fill="#1D4ED8" opacity="0.25" filter="url(#blur)"/>
  <circle cx="980" cy="620" r="190" fill="#14B8A6" opacity="0.22" filter="url(#blur)"/>

  <rect x="140" y="150" width="920" height="500" rx="28" fill="#0F1B33" stroke="#23324C" stroke-width="2"/>

  <rect x="190" y="215" width="430" height="165" rx="16" fill="url(#card)"/>
  <rect x="660" y="215" width="350" height="44" rx="12" fill="#101E3A" stroke="#2A3A58"/>
  <rect x="660" y="285" width="350" height="95" rx="16" fill="#101E3A" stroke="#2A3A58"/>

  <rect x="190" y="420" width="820" height="170" rx="18" fill="#0F172A" stroke="#293247"/>
  <rect x="220" y="455" width="300" height="12" rx="6" fill="#334155"/>
  <rect x="220" y="480" width="420" height="12" rx="6" fill="#334155"/>
  <rect x="220" y="505" width="360" height="12" rx="6" fill="#334155"/>

  <rect x="680" y="455" width="260" height="20" rx="10" fill="url(#accent)"/>
  <rect x="680" y="490" width="200" height="10" rx="5" fill="#475569"/>
  <rect x="680" y="510" width="240" height="10" rx="5" fill="#475569"/>

  <rect x="190" y="215" width="120" height="38" rx="10" fill="url(#accent)"/>
  <rect x="330" y="230" width="260" height="12" rx="6" fill="#94A3B8"/>
  <rect x="330" y="250" width="210" height="12" rx="6" fill="#94A3B8"/>

  <rect x="720" y="305" width="230" height="12" rx="6" fill="#64748B"/>
  <rect x="720" y="325" width="190" height="12" rx="6" fill="#64748B"/>

  <g transform="translate(200 175)">
    <rect x="0" y="0" width="80" height="24" rx="12" fill="#1E293B"/>
    <circle cx="16" cy="12" r="6" fill="#22D3EE"/>
    <rect x="30" y="8" width="40" height="8" rx="4" fill="#94A3B8"/>
  </g>

  <g transform="translate(840 175)">
    <rect x="0" y="0" width="140" height="24" rx="12" fill="#1E293B"/>
    <rect x="16" y="8" width="80" height="8" rx="4" fill="#94A3B8"/>
    <circle cx="116" cy="12" r="6" fill="#38BDF8"/>
  </g>

  <text x="210" y="350" font-family="'Segoe UI', Arial, sans-serif" font-size="28" fill="#0F172A" font-weight="700">ClinicOS</text>
  <text x="210" y="380" font-family="'Segoe UI', Arial, sans-serif" font-size="14" fill="#475569">Operations dashboard</text>

  <text x="220" y="612" font-family="'Segoe UI', Arial, sans-serif" font-size="14" fill="#94A3B8">Patients</text>
  <text x="330" y="612" font-family="'Segoe UI', Arial, sans-serif" font-size="14" fill="#94A3B8">Scheduling</text>
  <text x="450" y="612" font-family="'Segoe UI', Arial, sans-serif" font-size="14" fill="#94A3B8">Billing</text>
</svg>
